<svg width="55" height="100" viewBox="0 0 55 100" fill="none" xmlns="http://www.w3.org/2000/svg">
<path d="M35.39 0.0787354L35.3506 22.1399L35.3112 44.2011L33.499 39.0798V39.0667L31.1484 88.1791C33.4596 94.6924 34.694 98.1723 34.7071 98.1854C34.7203 98.1985 36.0334 98.2773 37.6224 98.3561C42.4285 98.5925 48.3903 99.1046 52.9207 99.6693C53.9713 99.8006 54.8642 99.8663 54.9299 99.8137C54.9955 99.7612 55.0087 77.3061 54.9955 49.9003L54.9562 0.0787354H35.39Z" fill="#B1060F"/>
<path d="M0 0.0131325V49.8872C0 77.3193 0.0262633 99.7875 0.0656583 99.8269C0.105053 99.8663 1.79904 99.6956 3.84758 99.4724C5.89612 99.2491 8.71943 98.9602 10.1245 98.842C12.2781 98.6582 18.7389 98.2511 19.4743 98.238C19.6975 98.238 19.7106 97.1218 19.7369 77.1091L19.7763 55.9803L21.339 60.3925C21.5753 61.0754 21.6541 61.2855 21.8905 61.9552L24.2411 12.8559C23.7421 11.4508 24.0047 12.1862 23.44 10.5841C21.5228 5.16075 19.8945 0.577792 19.8288 0.367685L19.6975 0H0V0.0131325Z" fill="#B1060F"/>
<path d="M35.39 0.0787354L35.3506 22.1399L35.3112 44.2011L33.499 39.0798V39.0667L31.1484 88.1791C33.4596 94.6924 34.694 98.1723 34.7071 98.1854C34.7203 98.1985 36.0334 98.2773 37.6224 98.3561C42.4285 98.5925 48.3903 99.1046 52.9207 99.6693C53.9713 99.8006 54.8642 99.8663 54.9299 99.8137C54.9955 99.7612 55.0087 77.3061 54.9955 49.9003L54.9562 0.0787354H35.39Z" fill="#B1060F"/>
<path d="M0 0.0131325V49.8872C0 77.3193 0.0262633 99.7875 0.0656583 99.8269C0.105053 99.8663 1.79904 99.6956 3.84758 99.4724C5.89612 99.2491 8.71943 98.9602 10.1245 98.842C12.2781 98.6582 18.7389 98.2511 19.4743 98.238C19.6975 98.238 19.7106 97.1218 19.7369 77.1091L19.7763 55.9803L21.339 60.3925C21.5753 61.0754 21.6541 61.2855 21.8905 61.9552L24.2411 12.8559C23.7421 11.4508 24.0047 12.1862 23.44 10.5841C21.5228 5.16075 19.8945 0.577792 19.8288 0.367685L19.6975 0H0V0.0131325Z" fill="#B1060F"/>
<path d="M0 0.0131325V28.0098L19.7238 80.3264C19.7238 79.1314 19.7238 78.4748 19.7369 77.1092L19.7763 55.9803L21.339 60.3925C30.0059 84.975 34.6676 98.1592 34.6939 98.1855C34.707 98.1986 36.0202 98.2774 37.6091 98.3562C42.4153 98.5926 48.3771 99.1047 52.9075 99.6694C53.958 99.8007 54.851 99.8663 54.9166 99.8138C54.956 99.7744 54.9823 88.7701 54.9823 73.2353L35.3636 16.7954L35.3504 22.14L35.3111 44.2012L33.4989 39.0798C31.7261 34.0767 30.5443 30.7281 23.4138 10.5841C21.4965 5.16075 19.8682 0.577792 19.8026 0.367685L19.6712 0H0V0.0131325Z" fill="url(#paint0_radial_145_1333)"/>
<path d="M0 0.0131325L19.7632 56.0197V55.9934L21.3258 60.4057C30.0059 84.975 34.6676 98.1592 34.6939 98.1855C34.707 98.1986 36.0202 98.2774 37.6091 98.3562C42.4153 98.5926 48.3771 99.1047 52.9075 99.6694C53.9449 99.8007 54.851 99.8663 54.9035 99.8138L35.3111 44.1881V44.2012L33.4989 39.0798C31.7261 34.0767 30.5443 30.7281 23.4138 10.5841C21.4965 5.16075 19.8682 0.577792 19.8026 0.367685L19.6712 0H9.83562L0 0.0131325Z" fill="#E50914"/>
<defs>
<radialGradient id="paint0_radial_145_1333" cx="0" cy="0" r="1" gradientUnits="userSpaceOnUse" gradientTransform="translate(26.5706 49.337) rotate(-19.1007) scale(3.62367 132.74)">
<stop/>
<stop offset="1" stop-opacity="0"/>
</radialGradient>
</defs>
</svg>
