<svg width="110" height="30" viewBox="0 0 110 30" fill="none" xmlns="http://www.w3.org/2000/svg">
<path fill-rule="evenodd" clip-rule="evenodd" d="M15.1253 27.9479C13.4705 28.2386 11.7869 28.3255 10.0448 28.5577L4.73206 12.997V29.2256C3.07719 29.3997 1.56766 29.6319 0 29.8641V0.135953H4.41297L10.4514 17.0034V0.135953H15.1253V27.9479ZM24.2704 11.0227C26.0706 11.0227 28.8283 10.9355 30.4832 10.9355V15.5804C28.4217 15.5804 26.0124 15.5804 24.2704 15.6676V22.577C26.9994 22.403 29.7285 22.1704 32.4862 22.0832V26.5537L19.6252 27.57V0.13562H32.4862V4.78081H24.2704V11.0227ZM49.7599 4.78114H44.9407V26.1481C43.373 26.1481 41.8053 26.1481 40.2958 26.2059V4.78081H35.4765V0.13562H49.7599V4.78114ZM57.3079 10.7036H63.6657V15.3485H57.3079V25.8871H52.7496V0.136285H65.7269V4.78147H57.3076L57.3079 10.7036ZM73.2752 21.8226C75.917 21.8804 78.5879 22.0842 81.1716 22.2289V26.8159C77.0203 26.5543 72.8686 26.2934 68.63 26.2062V0.135953H73.2749L73.2752 21.8226ZM85.0908 27.1354C86.5713 27.2226 88.1393 27.3098 89.6488 27.4835V0.135953H85.0908V27.1354ZM110 0.136285L104.107 14.2746L110 29.8644C108.258 29.6322 106.516 29.3128 104.774 29.0224L101.436 20.4294L98.0394 28.3258C96.3551 28.0351 94.7297 27.9483 93.0461 27.7157L99.0264 14.0999L93.6264 0.135953H98.6197L101.668 7.94553L104.92 0.135953L110 0.136285Z" fill="#E50914"/>
</svg>
