<svg width="335" height="105" viewBox="0 0 335 105" fill="none" xmlns="http://www.w3.org/2000/svg">
<path d="M69.0469 0.672485H100.195V104.313H80.0156V34.2115C80.0156 32.1959 80.0391 29.3834 80.0859 25.774C80.1328 22.1178 80.1562 19.3053 80.1562 17.3365L60.5391 104.313H39.5156L20.0391 17.3365C20.0391 19.3053 20.0625 22.1178 20.1094 25.774C20.1562 29.3834 20.1797 32.1959 20.1797 34.2115V104.313H0V0.672485H31.5L50.3438 82.1647L69.0469 0.672485Z" fill="white"/>
<path d="M142.881 65.149H169.177L156.24 24.3678L142.881 65.149ZM144.217 0.672485H168.685L205.388 104.313H181.904L175.224 83.0084H137.045L129.873 104.313H107.232L144.217 0.672485Z" fill="white"/>
<path d="M232.675 104.313H211.16V0.672485H232.675V104.313Z" fill="white"/>
<path d="M268.189 18.6725V86.3131H288.158C298.376 86.3131 305.501 81.274 309.533 71.1959C311.736 65.6647 312.837 59.0787 312.837 51.4381C312.837 40.8912 311.173 32.8053 307.845 27.1803C304.564 21.5084 298.001 18.6725 288.158 18.6725H268.189ZM291.814 0.672485C298.236 0.766235 303.579 1.51624 307.845 2.92249C315.111 5.31311 320.993 9.69592 325.493 16.0709C329.103 21.2272 331.564 26.8053 332.876 32.8053C334.189 38.8053 334.845 44.524 334.845 49.9615C334.845 63.7428 332.079 75.4147 326.548 84.9772C319.048 97.8678 307.47 104.313 291.814 104.313H247.165V0.672485H291.814Z" fill="white"/>
</svg>
